<mxfile host="app.diagrams.net" modified="2023-05-23T21:40:20.392Z" agent="Mozilla/5.0 (Windows NT 10.0; Win64; x64) AppleWebKit/537.36 (KHTML, like Gecko) Chrome/113.0.0.0 Safari/537.36" version="21.3.0" etag="91OCghmR_V-Kq85pe6Be" type="github">
  <diagram name="Сторінка-1" id="1H-Siu8W9L3XMd0Gi-FA">
    <mxGraphModel>
      <root>
        <mxCell id="0" />
        <mxCell id="1" parent="0" />
      </root>
    </mxGraphModel>
  </diagram>
</mxfile>
